<?xml version="1.0" encoding="UTF-8"?>
<!DOCTYPE svg PUBLIC "-//W3C//DTD SVG 1.1//EN" "http://www.w3.org/Graphics/SVG/1.1/DTD/svg11.dtd">
<svg xmlns="http://www.w3.org/2000/svg" version="1.1" width="164px" height="150px" style="shape-rendering:geometricPrecision; text-rendering:geometricPrecision; image-rendering:optimizeQuality; fill-rule:evenodd; clip-rule:evenodd" xmlns:xlink="http://www.w3.org/1999/xlink">
<g><path style="opacity:0.978" fill="currentColor" d="M -0.5,-0.5 C 54.1667,-0.5 108.833,-0.5 163.5,-0.5C 163.5,5.83333 163.5,12.1667 163.5,18.5C 108.833,18.5 54.1667,18.5 -0.5,18.5C -0.5,12.1667 -0.5,5.83333 -0.5,-0.5 Z"/></g>
<g><path style="opacity:0.926" fill="currentColor" d="M 25.5,42.5 C 63.1667,42.5 100.833,42.5 138.5,42.5C 138.5,49.1667 138.5,55.8333 138.5,62.5C 100.5,62.5 62.5,62.5 24.5,62.5C 24.2066,55.7446 24.5399,49.0779 25.5,42.5 Z"/></g>
<g><path style="opacity:0.929" fill="currentColor" d="M -0.5,86.5 C 54.1667,86.5 108.833,86.5 163.5,86.5C 163.5,92.8333 163.5,99.1667 163.5,105.5C 108.905,106.495 54.2382,106.829 -0.5,106.5C -0.5,99.8333 -0.5,93.1667 -0.5,86.5 Z"/></g>
<g><path style="opacity:0.974" fill="currentColor" d="M 138.5,149.5 C 100.5,149.5 62.5,149.5 24.5,149.5C 24.5,143.167 24.5,136.833 24.5,130.5C 62.5,130.5 100.5,130.5 138.5,130.5C 138.5,136.833 138.5,143.167 138.5,149.5 Z"/></g>
</svg>
