<!--?xml version="1.0" encoding="UTF-8"?-->

<svg xmlns="http://www.w3.org/2000/svg" version="1.1" width="" height="" style="shape-rendering:geometricPrecision; text-rendering:geometricPrecision; image-rendering:optimizeQuality; fill-rule:evenodd; clip-rule:evenodd" xmlns:xlink="http://www.w3.org/1999/xlink" viewBox="0 0 164 150">
<g><path style="opacity:0.987" fill="currentColor" d="M -0.5,-0.5 C 54.1667,-0.5 108.833,-0.5 163.5,-0.5C 163.5,5.83333 163.5,12.1667 163.5,18.5C 108.833,18.5 54.1667,18.5 -0.5,18.5C -0.5,12.1667 -0.5,5.83333 -0.5,-0.5 Z"></path></g>
<g><path style="opacity:0.251" fill="currentColor" d="M 25.5,43.5 C 62.9963,42.5015 100.663,42.1682 138.5,42.5C 138.824,49.3543 138.491,56.021 137.5,62.5C 137.5,56.1667 137.5,49.8333 137.5,43.5C 100.167,43.5 62.8333,43.5 25.5,43.5 Z"></path></g>
<g><path style="opacity:0.974" fill="currentColor" d="M 25.5,43.5 C 62.8333,43.5 100.167,43.5 137.5,43.5C 137.5,49.8333 137.5,56.1667 137.5,62.5C 99.8333,62.5 62.1667,62.5 24.5,62.5C 24.1765,55.9779 24.5098,49.6446 25.5,43.5 Z"></path></g>
<g><path style="opacity:0.974" fill="currentColor" d="M 0.5,86.5 C 54.8333,86.5 109.167,86.5 163.5,86.5C 163.5,92.8333 163.5,99.1667 163.5,105.5C 163.167,105.5 162.833,105.5 162.5,105.5C 108.5,105.5 54.5,105.5 0.5,105.5C 0.5,99.1667 0.5,92.8333 0.5,86.5 Z"></path></g>
<g><path style="opacity:0.251" fill="currentColor" d="M -0.5,86.5 C -0.166667,86.5 0.166667,86.5 0.5,86.5C 0.5,92.8333 0.5,99.1667 0.5,105.5C 54.5,105.5 108.5,105.5 162.5,105.5C 108.336,106.499 54.0026,106.832 -0.5,106.5C -0.5,99.8333 -0.5,93.1667 -0.5,86.5 Z"></path></g>
<g><path style="opacity:0.987" fill="currentColor" d="M 138.5,149.5 C 100.5,149.5 62.5,149.5 24.5,149.5C 24.5,143.167 24.5,136.833 24.5,130.5C 62.5,130.5 100.5,130.5 138.5,130.5C 138.5,136.833 138.5,143.167 138.5,149.5 Z"></path></g>
</svg>
