<?xml version="1.0" encoding="UTF-8"?>
<!DOCTYPE svg PUBLIC "-//W3C//DTD SVG 1.1//EN" "http://www.w3.org/Graphics/SVG/1.1/DTD/svg11.dtd">
<svg xmlns="http://www.w3.org/2000/svg" version="1.1" width="152px" height="176px" style="shape-rendering:geometricPrecision; text-rendering:geometricPrecision; image-rendering:optimizeQuality; fill-rule:evenodd; clip-rule:evenodd" xmlns:xlink="http://www.w3.org/1999/xlink">
<g><path style="opacity:0.97" fill="#1e1f23" d="M 22.5,-0.5 C 57.8333,-0.5 93.1667,-0.5 128.5,-0.5C 140.908,2.90861 148.574,10.9086 151.5,23.5C 151.5,68.8333 151.5,114.167 151.5,159.5C 149.167,167.833 143.833,173.167 135.5,175.5C 133.167,175.5 130.833,175.5 128.5,175.5C 113.932,167.543 99.5989,159.043 85.5,150C 82.4076,148.136 79.0743,146.969 75.5,146.5C 70.9565,147.77 66.6232,149.603 62.5,152C 49.0329,161.009 35.0329,168.842 20.5,175.5C 19.1667,175.5 17.8333,175.5 16.5,175.5C 7.6146,173.615 1.94793,168.282 -0.5,159.5C -0.5,114.167 -0.5,68.8333 -0.5,23.5C 2.42559,10.9086 10.0923,2.90861 22.5,-0.5 Z M 23.5,12.5 C 57.835,12.3333 92.1683,12.5 126.5,13C 130.468,13.9643 133.635,16.1309 136,19.5C 137.157,43.081 137.657,66.7477 137.5,90.5C 137.498,113.738 137.164,136.905 136.5,160C 134.305,161.373 131.971,161.706 129.5,161C 116.167,153 102.833,145 89.5,137C 78.4879,131.879 67.8213,132.546 57.5,139C 45.3319,146.585 32.9985,153.918 20.5,161C 18.0797,161.687 15.913,161.187 14,159.5C 12.3439,114.25 12.0106,68.9169 13,23.5C 14.6844,17.9845 18.1844,14.3178 23.5,12.5 Z"/></g>
<g><path style="opacity:0.968" fill="#1d1f23" d="M 72.5,41.5 C 77.1328,40.4582 80.2994,42.1249 82,46.5C 82.4997,53.8258 82.6663,61.1591 82.5,68.5C 90.1739,68.3336 97.8406,68.5003 105.5,69C 110.833,73 110.833,77 105.5,81C 97.8406,81.4997 90.1739,81.6664 82.5,81.5C 82.6663,88.8409 82.4997,96.1742 82,103.5C 77.6667,110.167 73.3333,110.167 69,103.5C 68.5003,96.1742 68.3337,88.8409 68.5,81.5C 60.8261,81.6664 53.1594,81.4997 45.5,81C 40.1667,77 40.1667,73 45.5,69C 53.1594,68.5003 60.8261,68.3336 68.5,68.5C 68.3337,61.1591 68.5003,53.8258 69,46.5C 69.9973,44.6769 71.1639,43.0103 72.5,41.5 Z"/></g>
</svg>
