<?xml version="1.0" encoding="UTF-8"?>
<!DOCTYPE svg PUBLIC "-//W3C//DTD SVG 1.1//EN" "http://www.w3.org/Graphics/SVG/1.1/DTD/svg11.dtd">
<svg xmlns="http://www.w3.org/2000/svg" version="1.1" width="200px" height="200px" style="shape-rendering:geometricPrecision; text-rendering:geometricPrecision; image-rendering:optimizeQuality; fill-rule:evenodd; clip-rule:evenodd" xmlns:xlink="http://www.w3.org/1999/xlink">
<g><path style="opacity:0.95" fill="#fefffe" d="M 83.5,-0.5 C 91.1667,-0.5 98.8333,-0.5 106.5,-0.5C 142.405,5.22145 168.238,24.5548 184,57.5C 197.111,92.6887 192.611,125.355 170.5,155.5C 180.216,165.547 189.882,175.547 199.5,185.5C 199.5,188.5 199.5,191.5 199.5,194.5C 197.5,195.833 195.833,197.5 194.5,199.5C 191.5,199.5 188.5,199.5 185.5,199.5C 175.547,189.882 165.547,180.216 155.5,170.5C 125.354,192.611 92.6875,197.111 57.5,184C 24.5548,168.238 5.22145,142.405 -0.5,106.5C -0.5,98.5 -0.5,90.5 -0.5,82.5C 5.74101,46.4029 25.741,20.9029 59.5,6C 67.3812,2.8664 75.3812,0.699732 83.5,-0.5 Z M 83.5,19.5 C 117.726,16.6966 143.893,29.6966 162,58.5C 178.533,94.8336 172.366,126.667 143.5,154C 112.629,176.503 81.296,177.169 49.5,156C 19.1948,130.057 11.6948,98.5574 27,61.5C 39.3916,38.8825 58.2249,24.8825 83.5,19.5 Z"/></g>
</svg>
